<svg version="1.1" id="Layer_1" xmlns="http://www.w3.org/2000/svg" xmlns:xlink="http://www.w3.org/1999/xlink" x="0px" y="0px"
	 width="100%" viewBox="0 0 500 500" enable-background="new 0 0 500 500" xml:space="preserve">
<path fill="#0A1219" opacity="1.000000" stroke="none" 
	d="
M271.000000,501.000000 
	C180.666687,501.000000 90.833374,501.000000 1.000048,501.000000 
	C1.000032,334.333405 1.000032,167.666794 1.000016,1.000138 
	C167.666565,1.000092 334.333130,1.000092 500.999756,1.000046 
	C500.999847,167.666519 500.999847,334.333038 500.999939,500.999786 
	C424.500000,501.000000 348.000000,501.000000 271.000000,501.000000 
M126.209587,398.809418 
	C126.044884,399.156067 125.880180,399.502747 125.831230,399.789795 
	C125.831230,399.789795 125.734200,399.702972 125.110123,400.004944 
	C124.078049,401.861389 123.045975,403.717804 121.406937,405.163696 
	C121.874390,398.990570 118.535446,396.111084 112.967400,394.353271 
	C106.587029,392.339020 100.567665,393.405487 94.393456,394.893585 
	C90.178764,395.909363 89.552414,398.590332 90.172661,402.649200 
	C94.198647,401.920990 98.503777,404.813965 101.630493,400.106262 
	C102.213188,399.228973 104.325233,398.955200 105.620476,399.148132 
	C106.212357,399.236328 107.175766,401.448639 106.836128,402.141174 
	C106.257248,403.321594 104.874405,404.685608 103.666443,404.862976 
	C100.895691,405.269714 98.013268,404.832642 95.200195,405.049561 
	C86.121529,405.749695 83.452995,413.114471 86.003624,418.691498 
	C87.868332,422.768707 93.861374,423.995972 99.701035,421.656158 
	C101.037308,421.120758 102.472595,420.073151 103.731903,420.240814 
	C108.373688,420.858826 112.960716,421.888000 116.970421,422.649078 
	C118.925537,416.052795 120.495468,410.756073 122.038467,406.420349 
	C121.937187,410.584900 121.275475,414.887207 124.951195,418.049591 
	C124.951195,418.049591 124.864578,418.031433 125.026070,418.574188 
	C125.339951,418.763367 125.653831,418.952515 125.969826,419.030273 
	C125.969826,419.030273 125.858727,419.038544 126.042122,419.561066 
	C126.364220,419.714508 126.686325,419.867950 126.999718,419.987274 
	C126.999718,419.987274 126.967346,420.001038 127.371826,420.437714 
	C127.920029,420.616547 128.468216,420.795380 129.638474,421.437805 
	C135.710190,421.592377 141.791489,422.024506 147.850677,421.815491 
	C152.885483,421.641815 153.753159,417.122955 153.742386,413.566650 
	C153.729828,409.421661 149.733505,411.507538 147.439896,411.066833 
	C146.168625,410.822540 144.811874,411.023071 144.771606,411.023071 
	C142.176346,413.749603 140.312622,415.707611 138.448914,417.665619 
	C137.650162,417.200867 136.851425,416.736084 136.052673,416.271332 
	C137.635178,410.401733 139.217682,404.532166 140.800186,398.662567 
	C141.514023,398.740265 142.227859,398.817993 142.941696,398.895691 
	C143.285416,401.020264 143.629150,403.144836 144.076096,405.907471 
	C146.408432,405.907471 149.162033,406.611603 151.202133,405.706848 
	C153.190002,404.825256 155.164886,402.507263 155.774963,400.419464 
	C156.183273,399.022125 154.602386,395.834656 153.217102,395.320923 
	C145.034195,392.286194 136.779373,391.792633 128.396225,396.952087 
	C128.198715,397.273407 128.001205,397.594757 127.947212,397.846741 
	C127.947212,397.846741 127.858543,397.714264 127.270607,397.837555 
	C127.083603,398.162872 126.896606,398.488159 126.843727,398.819031 
	C126.843727,398.819031 126.793587,398.694519 126.209587,398.809418 
M198.981415,398.981262 
	C198.981415,398.981262 198.978165,398.878113 198.455154,399.053864 
	C198.278122,399.367493 198.101089,399.681122 197.992218,399.991516 
	C197.992218,399.991516 197.971115,399.926666 197.372726,400.303009 
	C194.121170,405.833282 192.723297,411.446381 196.797531,417.297516 
	C196.797531,417.297516 196.624588,417.234009 196.693192,417.836853 
	C197.124924,418.241577 197.556656,418.646271 198.001205,418.997986 
	C198.001205,418.997986 197.948456,419.011963 198.232025,419.565521 
	C198.790298,419.807892 199.348557,420.050232 199.928772,420.117432 
	C199.928772,420.117432 199.752548,420.127747 199.939224,420.671143 
	C200.298264,420.775299 200.657303,420.879456 201.573410,421.518372 
	C208.994171,424.113495 216.380447,422.975555 223.462112,420.533386 
	C225.180328,419.940826 226.099258,416.654907 227.004013,414.450775 
	C227.153824,414.085754 225.243027,412.146790 224.436752,412.240814 
	C220.490738,412.701050 215.275665,409.590057 213.128174,415.893036 
	C212.944077,416.433380 211.470352,416.534393 210.369827,416.918304 
	C210.369827,414.160950 210.369827,411.779236 210.369827,409.006653 
	C214.888657,409.006653 219.029968,408.820251 223.145599,409.065308 
	C226.470093,409.263214 229.210220,408.682556 229.913330,405.070404 
	C230.666382,401.201752 230.293564,397.428253 226.011780,395.599762 
	C219.453369,392.798920 212.775848,391.781342 205.325363,394.970642 
	C204.759552,395.289093 204.193741,395.607544 203.280045,395.879974 
	C203.280045,395.879974 203.010300,396.104462 202.469345,396.138733 
	C202.253906,396.407532 202.038467,396.676361 201.977264,396.941284 
	C201.977264,396.941284 201.959869,396.787964 201.354095,396.872101 
	C200.890503,397.247253 200.426895,397.622406 200.001694,398.011932 
	C200.001694,398.011932 200.006729,397.971252 199.472412,398.099274 
	C199.274368,398.392212 199.076324,398.685120 198.981415,398.981262 
M424.548553,413.898804 
	C424.648315,413.606812 424.748077,413.314850 424.901855,412.382202 
	C425.214447,410.240112 425.527069,408.097992 425.960938,405.525024 
	C425.960938,405.525024 426.012299,405.080353 426.066101,405.066589 
	C426.066101,405.066589 426.077850,405.012268 426.736633,404.748657 
	C428.456604,404.158783 430.176605,403.568878 432.100342,403.706635 
	C433.413422,410.705322 434.890533,417.678741 435.973114,424.712891 
	C436.549377,428.457245 434.338745,429.962494 430.649170,430.157745 
	C429.296814,430.229309 428.016663,431.665222 426.703552,432.478760 
	C439.485229,434.959045 441.862671,433.836487 448.165161,425.028687 
	C453.460236,417.628815 457.217865,409.128754 461.718384,401.003326 
	C457.507690,398.532532 454.951263,400.285980 453.096375,403.665497 
	C451.323822,406.894867 449.768463,410.243439 447.938538,413.897247 
	C447.401489,413.041412 447.172455,412.831390 447.132904,412.590271 
	C446.489410,408.668182 447.184601,402.939941 444.907898,401.279144 
	C442.143036,399.262207 436.851654,400.921021 432.700623,400.510895 
	C430.277496,400.271515 426.637146,400.459900 427.979614,395.519501 
	C427.979614,395.519501 428.072815,395.069794 428.654266,394.780273 
	C428.356964,393.856384 428.059692,392.932465 427.456635,391.363586 
	C425.646667,391.567657 423.836731,391.771759 421.372772,392.226013 
	C418.354340,394.496124 415.226074,396.639099 412.374878,399.102753 
	C411.325073,400.009888 410.929382,401.674042 410.378174,403.631378 
	C411.566162,404.109894 412.754150,404.588409 413.945465,405.733734 
	C412.955231,410.112640 411.622070,414.456329 411.167328,418.890167 
	C411.015503,420.370422 413.110382,422.081085 414.858521,423.831116 
	C415.557037,423.823486 416.255554,423.815857 417.860016,423.970825 
	C420.791626,423.970825 423.723236,423.970825 426.654846,423.970825 
	C426.962219,423.613953 427.269562,423.257080 427.576935,422.900208 
	C426.655884,421.907257 425.734863,420.914307 424.556885,419.472168 
	C424.317871,419.009644 424.078888,418.547119 423.940002,417.506989 
	C423.909424,416.657532 423.878845,415.808044 423.967743,414.518555 
	C423.967743,414.518555 424.037476,414.067963 424.022552,414.025787 
	C424.022552,414.025787 424.065704,414.037567 424.548553,413.898804 
M149.019043,251.335403 
	C148.701553,251.154312 148.384079,250.973221 147.905243,250.325134 
	C147.905243,250.325134 147.530197,250.003448 147.523727,249.333694 
	C140.275909,240.626160 136.722855,231.071793 140.108658,219.626389 
	C140.932312,216.842087 141.023117,213.719162 140.854019,210.786331 
	C140.386139,202.671692 140.198151,194.466721 138.746567,186.507721 
	C137.685654,180.690826 135.244781,174.972397 132.476593,169.705383 
	C131.541275,167.925766 127.569855,166.723816 125.266273,167.078506 
	C123.968147,167.278397 122.430038,171.172653 122.386604,173.429367 
	C122.066055,190.084717 122.807373,206.789673 121.808517,223.394424 
	C120.856102,239.227188 126.351578,252.177917 136.092987,264.712738 
	C146.149445,279.657715 158.843781,291.968689 173.434631,302.449707 
	C183.898026,309.965820 192.259842,318.846741 192.125275,332.983673 
	C192.115860,333.973083 193.990707,335.834991 195.010818,335.850159 
	C208.340988,336.049011 221.676910,336.087189 235.005112,335.834656 
	C236.308228,335.809967 238.726242,333.537506 238.671844,332.402008 
	C238.125229,320.990509 238.427429,309.328186 236.047821,298.261749 
	C232.017883,279.520447 218.644989,267.866516 201.951981,259.863373 
	C186.806351,252.602112 173.047150,243.571396 161.833664,230.874084 
	C159.676147,228.431046 156.963074,226.255295 154.099701,224.709290 
	C149.334702,222.136551 145.366150,224.580780 146.110687,229.875702 
	C146.637421,233.621841 148.151901,237.732620 150.517242,240.623795 
	C158.099762,249.891953 166.283524,258.668182 174.234375,267.635040 
	C177.155823,270.929840 179.743347,274.378906 180.151077,280.400391 
	C176.832932,278.178955 174.307327,276.904144 172.298004,275.065216 
	C166.174911,269.461426 160.250885,263.640167 154.003754,257.278656 
	C152.388336,255.474915 150.772919,253.671158 149.120026,251.928329 
	C149.120026,251.928329 149.185913,251.900726 149.019043,251.335403 
M267.845215,395.988007 
	C269.477692,395.988007 271.110168,395.988007 272.763641,395.988007 
	C274.280304,392.424286 275.757599,389.194763 277.028442,385.885895 
	C277.944031,383.501801 278.584595,381.012054 279.347839,378.569458 
	C276.857117,378.153290 274.372986,377.686859 271.870819,377.357574 
	C271.272064,377.278748 270.613220,377.656769 269.298828,377.765289 
	C268.185883,382.918945 267.007202,388.060150 266.029663,393.239380 
	C265.879883,394.032990 266.658447,395.001801 267.845215,395.988007 
M175.968796,377.514984 
	C171.849899,377.514984 167.730988,377.514984 163.335938,377.514984 
	C160.417526,391.857147 157.567245,405.757294 154.827179,419.679138 
	C154.703445,420.307800 155.576859,421.132690 156.912827,421.980835 
	C161.215881,421.980835 165.518921,421.980835 169.518524,421.980835 
	C170.335281,418.985138 171.015091,416.491760 171.825668,413.518738 
	C173.943741,416.790710 175.211227,421.102203 177.378372,421.615509 
	C182.161118,422.748383 187.397125,421.967621 193.321762,421.967621 
	C190.349976,416.538971 188.368973,412.026031 185.572205,408.093170 
	C183.320251,404.926422 184.398285,403.702759 187.037094,401.887665 
	C189.971313,399.869354 192.501785,397.264069 195.190567,394.929474 
	C185.666122,390.744629 180.989288,398.782074 174.047028,402.814667 
	C174.133972,400.900085 174.063980,400.100922 174.221176,399.349304 
	C175.502716,393.221924 176.913879,387.119354 178.043121,380.964783 
	C178.211136,380.049103 177.112747,378.901093 175.968796,377.514984 
M64.941330,420.835480 
	C70.014435,421.399261 75.087532,421.963013 80.027550,422.511993 
	C80.769844,420.019135 81.440140,418.251312 81.816803,416.423035 
	C83.919273,406.217804 85.790421,395.961212 88.118362,385.808746 
	C88.705132,383.249756 90.301010,380.977600 86.519684,380.061157 
	C80.306770,378.555389 73.405136,380.128021 72.914780,382.988464 
	C72.860229,383.306702 73.027267,383.665009 72.964500,383.979370 
	C72.303246,387.290802 71.783119,390.642761 70.892792,393.892792 
	C69.843758,397.722137 67.559395,399.291809 63.964458,397.259064 
	C65.085251,391.479980 66.149399,385.992920 67.283592,380.144684 
	C61.923779,380.144684 57.450069,380.144684 52.210293,380.064392 
	C51.814747,380.505432 51.167580,380.892853 51.060448,381.395386 
	C48.378052,393.977692 45.726372,406.566833 43.177879,419.176697 
	C43.013813,419.988464 43.724110,420.976959 44.950161,421.982208 
	C49.397175,421.982208 53.844185,421.982208 58.550415,421.982208 
	C59.680973,417.284760 61.455059,412.691315 61.726124,408.010834 
	C62.000614,403.271271 64.117218,402.473755 68.032608,403.826996 
	C67.065018,409.207764 66.097427,414.588562 64.941330,420.835480 
M346.880127,101.359322 
	C345.347961,100.553581 343.899994,99.354851 342.270020,99.005470 
	C331.190704,96.630676 320.073059,94.434921 308.218231,91.993576 
	C300.531403,89.520477 292.844543,87.047386 284.753021,84.154564 
	C284.180298,84.070854 283.607574,83.987137 282.541229,83.328453 
	C281.258148,83.140205 279.789307,83.292252 278.721649,82.709381 
	C270.834839,78.403679 262.942810,74.093468 255.240921,69.470619 
	C252.437073,67.787689 250.272568,67.663376 247.496063,69.383354 
	C221.996826,85.179527 193.939926,93.581299 164.510864,98.125900 
	C161.182907,98.639824 158.091736,100.687126 154.608719,102.203003 
	C154.396667,102.525589 154.479736,102.782875 155.023239,103.652664 
	C154.968262,104.111176 154.913284,104.569695 154.374023,105.584694 
	C154.535538,107.713684 154.697037,109.842674 155.025665,112.898918 
	C154.970551,119.275337 154.915451,125.651749 154.427032,132.415543 
	C154.571045,133.267456 154.715057,134.119385 155.025894,135.899124 
	C154.970627,144.608871 154.915375,153.318634 154.393753,162.522385 
	C154.550323,164.005600 154.706894,165.488831 155.037094,167.852600 
	C157.039246,180.172165 158.150787,192.721024 161.249741,204.758209 
	C166.042389,223.374191 183.254379,242.087662 199.841690,247.964630 
	C197.497757,245.150909 195.751740,243.079605 194.031998,240.986725 
	C177.068481,220.342896 168.284012,196.572647 167.051224,169.051788 
	C167.013733,149.365753 166.976257,129.679718 167.558609,109.460129 
	C196.268997,105.549805 223.441010,96.963081 248.624939,82.502762 
	C250.908386,81.191628 252.294418,81.558678 254.300034,82.752205 
	C268.622833,91.275742 284.098511,97.086990 300.578705,102.151283 
	C301.386536,102.372879 302.194397,102.594475 303.724243,103.058327 
	C305.452118,103.457512 307.179962,103.856689 309.473969,104.736702 
	C317.888458,106.459480 326.302979,108.182251 335.065277,109.976234 
	C335.065277,128.834259 335.031128,147.798996 335.073486,166.763580 
	C335.133026,193.404205 326.647003,217.079376 310.451569,238.097000 
	C308.195038,241.025436 305.861816,243.894775 302.798187,247.757034 
	C304.515503,247.312180 304.956757,247.293533 305.294159,247.096756 
	C322.176971,237.250412 335.709198,224.396271 340.905701,204.881287 
	C343.605621,194.742126 345.103516,184.282867 347.658691,173.325836 
	C347.764557,172.844452 347.962616,172.363174 347.963104,171.881683 
	C347.985840,149.694733 348.003113,127.507751 347.963440,105.320877 
	C347.961487,104.235519 347.443451,103.151077 346.880127,101.359322 
M324.036194,278.949982 
	C320.781555,279.275940 321.792908,277.167816 322.585480,275.912720 
	C324.773560,272.447784 326.989319,268.944397 329.643250,265.840240 
	C336.989380,257.247986 344.831970,249.065933 351.895599,240.254578 
	C354.207733,237.370346 355.443878,233.136230 355.892029,229.367233 
	C356.463287,224.563293 352.730316,222.290100 348.362274,224.535385 
	C345.618469,225.945786 342.976501,227.977783 340.960968,230.311417 
	C329.437103,243.654144 315.087250,252.761108 299.227844,260.169556 
	C284.520233,267.039978 273.224274,277.798981 267.482269,293.515472 
	C262.803864,306.320679 263.761261,319.672272 263.910431,332.911316 
	C263.922119,333.949249 266.168213,335.832214 267.399872,335.852386 
	C280.553955,336.067383 293.713837,336.049713 306.868835,335.864258 
	C307.932098,335.849274 309.874390,334.134521 309.885773,333.191223 
	C310.049561,319.631165 317.762482,310.606598 327.941833,303.300537 
	C346.858734,289.723206 362.215027,272.948151 373.741364,252.782013 
	C376.485931,247.980225 379.396484,242.433441 379.563171,237.145264 
	C380.241272,215.631287 379.941620,194.084244 379.802094,172.550674 
	C379.789886,170.667068 378.746399,167.703064 377.420227,167.182968 
	C375.657257,166.491531 372.362213,166.960709 371.120605,168.262222 
	C368.600281,170.904205 366.140442,174.210510 365.238770,177.657150 
	C363.618774,183.849884 362.698181,190.321884 362.341461,196.724884 
	C361.873779,205.118988 361.479492,213.649551 362.470123,221.952423 
	C363.327118,229.135178 363.501648,235.846024 359.515137,241.956375 
	C350.170563,256.279358 338.755890,268.710114 324.036194,278.949982 
M199.209427,189.289383 
	C204.967072,195.055374 210.861221,200.693100 216.438934,206.628174 
	C220.851990,211.323990 222.817047,206.969559 225.615173,204.711258 
	C229.004425,201.975845 227.803406,200.083237 225.189056,197.564102 
	C217.212173,189.877838 209.471146,181.946762 201.203140,173.675583 
	C209.562042,165.499008 217.488541,157.686478 225.490295,149.951828 
	C228.103195,147.426147 228.686646,145.285110 225.654007,142.491455 
	C222.812531,139.873886 220.400620,137.970459 216.913910,141.462357 
	C207.396545,150.993866 197.821121,160.467896 188.211334,169.906281 
	C185.557053,172.513229 185.457733,174.984924 188.011765,177.637985 
	C191.584076,181.348816 195.144089,185.071518 199.209427,189.289383 
M280.514526,194.046082 
	C279.215759,195.335709 277.912598,196.620972 276.619049,197.915802 
	C272.597656,201.941055 276.145355,204.261719 278.558411,206.968689 
	C281.214447,209.948242 283.266541,208.927551 285.591827,206.497391 
	C290.888336,200.962006 296.333496,195.568985 301.715149,190.115005 
	C305.922150,185.851425 310.187988,181.643188 314.300568,177.290268 
	C316.201050,175.278732 316.763672,173.023727 314.438110,170.725372 
	C304.484772,160.888596 294.596283,150.986053 284.615906,141.176926 
	C282.437347,139.035767 280.218140,138.859436 277.751465,141.273712 
	C273.605133,145.331985 273.358978,146.839111 277.654419,151.035461 
	C285.349121,158.552689 293.175903,165.934738 301.263885,173.676117 
	C293.854034,180.947769 287.437256,187.244843 280.514526,194.046082 
M352.820770,416.733337 
	C354.943481,408.357086 357.142334,399.998413 359.090118,391.581696 
	C359.326721,390.559113 358.211304,389.223633 357.722504,388.033173 
	C356.176086,388.803223 353.627930,389.255768 353.264923,390.400970 
	C352.013123,394.350189 351.716858,398.590088 350.692719,402.626953 
	C349.558289,407.098480 348.553802,411.751556 346.417725,415.751465 
	C345.490540,417.487732 341.876251,417.789001 339.482452,418.742035 
	C338.694855,416.643188 336.966492,414.385132 337.289886,412.474274 
	C338.420074,405.796295 340.259033,399.238281 341.828369,392.634613 
	C342.467743,389.944275 342.059509,387.976807 338.682709,387.993927 
	C335.370544,388.010742 332.058228,387.997589 328.161377,387.997589 
	C326.388092,396.886719 324.603363,405.633545 322.911926,414.398407 
	C322.096313,418.625000 324.980804,423.540253 329.072449,423.807098 
	C333.989807,424.127777 339.132294,424.139374 343.867126,422.998077 
	C346.966187,422.251038 349.514923,419.220825 352.820770,416.733337 
M288.732941,413.751556 
	C289.959930,416.518372 289.959930,416.518372 286.283661,417.676392 
	C284.677307,412.574799 280.367737,412.419830 276.597656,413.677673 
	C274.929077,414.234375 274.275360,417.832977 272.937225,420.495850 
	C282.092316,423.422424 290.149994,423.667633 298.056427,421.215057 
	C301.683563,420.089935 304.792084,417.815918 304.849121,412.930450 
	C304.905762,408.080872 301.199127,407.234070 298.216980,405.564850 
	C296.799744,404.771637 295.043091,404.610046 293.489838,404.029449 
	C290.320099,402.844574 290.859894,401.183716 291.828613,399.869995 
	C294.124908,401.157532 295.672241,402.704590 297.282898,402.773682 
	C299.889709,402.885406 302.957275,404.163727 304.821228,400.287079 
	C306.113037,397.600464 306.014801,396.855530 303.300720,395.581116 
	C296.022034,392.163269 288.845734,392.637024 281.621796,395.352966 
	C277.035400,397.077301 275.899872,401.194153 276.950043,405.151245 
	C277.567902,407.479401 280.417328,409.406616 282.605469,411.061279 
	C284.133484,412.216705 286.241669,412.604797 288.732941,413.751556 
M362.501038,424.005768 
	C369.534271,424.003845 369.314819,423.965271 370.623535,416.522125 
	C371.310364,412.615875 372.923096,408.872375 374.117706,405.055389 
	C374.701813,405.119232 375.285950,405.183075 375.870087,405.246918 
	C378.185333,411.332642 374.165100,417.173279 373.945831,424.006104 
	C376.382629,424.006104 378.961884,423.841431 381.511322,424.046936 
	C384.859406,424.316772 386.874939,423.713867 387.245270,419.663086 
	C387.572968,416.078278 389.143250,412.623962 389.931458,409.060425 
	C391.125549,403.661926 387.295319,398.706879 382.373810,399.296204 
	C380.301849,399.544281 378.325928,400.538239 376.254578,400.867706 
	C374.893951,401.084137 373.441925,400.695404 372.028656,400.617737 
	C368.932251,400.447601 365.719025,399.783478 362.800293,400.431915 
	C361.789856,400.656403 361.529083,404.172302 360.880280,406.170013 
	C360.731842,406.626984 360.260498,406.994690 360.165222,407.450989 
	C359.041168,412.835022 357.960388,418.228088 356.789856,424.005615 
	C358.966919,424.005615 360.283569,424.005615 362.501038,424.005768 
M263.007202,395.819916 
	C259.045929,391.483368 254.605408,393.340576 250.174332,394.795654 
	C249.178757,395.122589 248.090500,395.538544 247.096649,395.431732 
	C243.749222,395.071960 240.434647,394.273499 237.086594,394.129913 
	C236.017288,394.084076 234.109146,395.387207 233.899826,396.356934 
	C232.089066,404.746002 230.578613,413.199890 228.951782,421.776428 
	C233.885040,421.776428 238.815872,421.776428 243.431000,421.776428 
	C245.106613,414.957672 246.711960,408.424866 248.317291,401.892090 
	C248.816406,401.967163 249.315536,402.042267 249.814651,402.117371 
	C250.385788,404.291016 250.956924,406.464661 251.500839,408.534729 
	C262.100769,409.717499 259.846802,408.085327 262.057068,400.890625 
	C262.482452,399.505981 262.711365,398.060974 263.007202,395.819916 
M392.758911,412.125122 
	C392.041290,415.948669 391.323669,419.772217 390.529266,424.005005 
	C394.251556,424.005005 397.070312,423.863495 399.868134,424.045135 
	C402.613953,424.223450 403.650970,422.878540 403.872864,420.414673 
	C403.968719,419.350281 404.120209,418.282501 404.353699,417.240326 
	C405.611603,411.625732 406.903259,406.018677 408.321747,399.802216 
	C403.711761,400.036896 399.542114,399.320404 396.368256,400.775635 
	C394.598633,401.587036 394.513519,406.019775 393.609497,408.801147 
	C393.311310,409.718506 392.825836,410.575043 392.758911,412.125122 
M399.097015,389.389435 
	C398.536072,391.249542 397.367340,393.201263 397.629028,394.937317 
	C397.801788,396.083313 399.936249,397.565002 401.356964,397.773254 
	C405.646271,398.402008 410.108093,395.439636 410.011688,392.514160 
	C409.914673,389.572296 406.159790,387.604889 401.425537,388.089691 
	C400.834351,388.150208 400.282318,388.592499 399.097015,389.389435 
z"/>
<path fill="#ECE3D3" opacity="1.000000" stroke="none" 
	d="
M324.396149,278.803925 
	C338.755890,268.710114 350.170563,256.279358 359.515137,241.956375 
	C363.501648,235.846024 363.327118,229.135178 362.470123,221.952423 
	C361.479492,213.649551 361.873779,205.118988 362.341461,196.724884 
	C362.698181,190.321884 363.618774,183.849884 365.238770,177.657150 
	C366.140442,174.210510 368.600281,170.904205 371.120605,168.262222 
	C372.362213,166.960709 375.657257,166.491531 377.420227,167.182968 
	C378.746399,167.703064 379.789886,170.667068 379.802094,172.550674 
	C379.941620,194.084244 380.241272,215.631287 379.563171,237.145264 
	C379.396484,242.433441 376.485931,247.980225 373.741364,252.782013 
	C362.215027,272.948151 346.858734,289.723206 327.941833,303.300537 
	C317.762482,310.606598 310.049561,319.631165 309.885773,333.191223 
	C309.874390,334.134521 307.932098,335.849274 306.868835,335.864258 
	C293.713837,336.049713 280.553955,336.067383 267.399872,335.852386 
	C266.168213,335.832214 263.922119,333.949249 263.910431,332.911316 
	C263.761261,319.672272 262.803864,306.320679 267.482269,293.515472 
	C273.224274,277.798981 284.520233,267.039978 299.227844,260.169556 
	C315.087250,252.761108 329.437103,243.654144 340.960968,230.311417 
	C342.976501,227.977783 345.618469,225.945786 348.362274,224.535385 
	C352.730316,222.290100 356.463287,224.563293 355.892029,229.367233 
	C355.443878,233.136230 354.207733,237.370346 351.895599,240.254578 
	C344.831970,249.065933 336.989380,257.247986 329.643250,265.840240 
	C326.989319,268.944397 324.773560,272.447784 322.585480,275.912720 
	C321.792908,277.167816 320.781555,279.275940 324.396149,278.803925 
z"/>
<path fill="#EEE5D5" opacity="1.000000" stroke="none" 
	d="
M154.249374,257.903534 
	C160.250885,263.640167 166.174911,269.461426 172.298004,275.065216 
	C174.307327,276.904144 176.832932,278.178955 180.151077,280.400391 
	C179.743347,274.378906 177.155823,270.929840 174.234375,267.635040 
	C166.283524,258.668182 158.099762,249.891953 150.517242,240.623795 
	C148.151901,237.732620 146.637421,233.621841 146.110687,229.875702 
	C145.366150,224.580780 149.334702,222.136551 154.099701,224.709290 
	C156.963074,226.255295 159.676147,228.431046 161.833664,230.874084 
	C173.047150,243.571396 186.806351,252.602112 201.951981,259.863373 
	C218.644989,267.866516 232.017883,279.520447 236.047821,298.261749 
	C238.427429,309.328186 238.125229,320.990509 238.671844,332.402008 
	C238.726242,333.537506 236.308228,335.809967 235.005112,335.834656 
	C221.676910,336.087189 208.340988,336.049011 195.010818,335.850159 
	C193.990707,335.834991 192.115860,333.973083 192.125275,332.983673 
	C192.259842,318.846741 183.898026,309.965820 173.434631,302.449707 
	C158.843781,291.968689 146.149445,279.657715 136.288605,264.232300 
	C136.708939,262.087646 136.933624,260.423431 137.230453,258.224915 
	C139.154709,257.787109 141.112259,257.709381 142.227188,261.019867 
	C142.570496,262.039337 145.003433,262.855896 146.468689,262.838745 
	C147.648544,262.824951 148.802704,261.400391 149.985260,260.627747 
	C151.397186,259.705231 152.827194,258.810394 154.249374,257.903534 
z"/>
<path fill="#EFE7DA" opacity="1.000000" stroke="none" 
	d="
M285.157715,84.574295 
	C292.844543,87.047386 300.531403,89.520477 308.358887,92.332596 
	C305.649231,93.930672 305.451782,96.330956 307.149170,98.183357 
	C308.027130,99.141502 310.486694,98.623055 312.224274,98.832878 
	C313.040131,98.931381 313.838562,99.174416 314.761139,99.377541 
	C312.440430,101.311699 310.674133,102.783775 308.907837,104.255859 
	C307.179962,103.856689 305.452118,103.457512 303.355011,102.588989 
	C302.311005,101.224716 301.636200,100.329781 300.961426,99.434853 
	C300.640656,100.244019 300.319885,101.053192 299.999115,101.862366 
	C284.098511,97.086990 268.622833,91.275742 254.300034,82.752205 
	C252.294418,81.558678 250.908386,81.191628 248.624939,82.502762 
	C223.441010,96.963081 196.268997,105.549805 166.972565,110.038170 
	C166.260147,111.259880 166.024216,111.903419 166.023407,112.547249 
	C166.000793,130.613190 165.986481,148.679214 166.037827,166.745026 
	C166.040894,167.822495 166.601257,168.898407 166.902283,169.975037 
	C168.284012,196.572647 177.068481,220.342896 194.031998,240.986725 
	C195.751740,243.079605 197.497757,245.150909 199.841690,247.964630 
	C183.254379,242.087662 166.042389,223.374191 161.249741,204.758209 
	C158.150787,192.721024 157.039246,180.172165 155.019073,167.004211 
	C154.954056,164.780014 154.907089,163.404205 154.860107,162.028381 
	C154.915375,153.318634 154.970627,144.608871 155.011292,135.070557 
	C154.951233,133.504059 154.905777,132.766113 154.860336,132.028168 
	C154.915451,125.651749 154.970551,119.275337 155.010498,112.005440 
	C154.949677,109.084045 154.903992,107.056122 154.858307,105.028206 
	C154.913284,104.569695 154.968262,104.111176 155.003937,103.077820 
	C154.984634,102.502983 154.890747,102.023384 154.890747,102.023392 
	C158.091736,100.687126 161.182907,98.639824 164.510864,98.125900 
	C193.939926,93.581299 221.996826,85.179527 247.496063,69.383354 
	C250.272568,67.663376 252.437073,67.787689 255.240921,69.470619 
	C262.942810,74.093468 270.834839,78.403679 278.721649,82.709381 
	C279.789307,83.292252 281.258148,83.140205 282.823486,83.930489 
	C283.789734,84.546448 284.473724,84.560371 285.157715,84.574295 
z"/>
<path fill="#EDE5D7" opacity="1.000000" stroke="none" 
	d="
M309.190918,104.496277 
	C310.674133,102.783775 312.440430,101.311699 314.761139,99.377541 
	C313.838562,99.174416 313.040131,98.931381 312.224274,98.832878 
	C310.486694,98.623055 308.027130,99.141502 307.149170,98.183357 
	C305.451782,96.330956 305.649231,93.930672 308.733643,92.426476 
	C320.073059,94.434921 331.190704,96.630676 342.270020,99.005470 
	C343.899994,99.354851 345.347961,100.553581 346.921082,101.753258 
	C346.962036,102.147194 346.845673,101.961411 346.595398,102.294235 
	C346.232452,103.274643 346.021912,103.922127 346.021301,104.569801 
	C346.001129,125.784615 345.986847,146.999481 346.033966,168.214203 
	C346.036774,169.469696 346.556763,170.724030 346.919617,172.305328 
	C347.050232,173.077240 347.097321,173.522720 347.144409,173.968216 
	C345.103516,184.282867 343.605621,194.742126 340.905701,204.881287 
	C335.709198,224.396271 322.176971,237.250412 305.294159,247.096756 
	C304.956757,247.293533 304.515503,247.312180 302.798187,247.757034 
	C305.861816,243.894775 308.195038,241.025436 310.451569,238.097000 
	C326.647003,217.079376 335.133026,193.404205 335.073486,166.763580 
	C335.031128,147.798996 335.065277,128.834259 335.065277,109.976234 
	C326.302979,108.182251 317.888458,106.459480 309.190918,104.496277 
z"/>
<path fill="#EEE5D7" opacity="1.000000" stroke="none" 
	d="
M154.126556,257.591095 
	C152.827194,258.810394 151.397186,259.705231 149.985260,260.627747 
	C148.802704,261.400391 147.648544,262.824951 146.468689,262.838745 
	C145.003433,262.855896 142.570496,262.039337 142.227188,261.019867 
	C141.112259,257.709381 139.154709,257.787109 137.230453,258.224915 
	C136.933624,260.423431 136.708939,262.087646 136.182678,263.902039 
	C126.351578,252.177917 120.856102,239.227188 121.808517,223.394424 
	C122.807373,206.789673 122.066055,190.084717 122.386604,173.429367 
	C122.430038,171.172653 123.968147,167.278397 125.266273,167.078506 
	C127.569855,166.723816 131.541275,167.925766 132.476593,169.705383 
	C135.244781,174.972397 137.685654,180.690826 138.746567,186.507721 
	C140.198151,194.466721 140.386139,202.671692 140.854019,210.786331 
	C141.023117,213.719162 140.932312,216.842087 140.108658,219.626389 
	C136.722855,231.071793 140.275909,240.626160 147.193329,249.684875 
	C143.188553,252.778336 146.285736,253.457626 148.366211,255.072144 
	C148.714447,253.661789 148.935974,252.764603 149.157501,251.867416 
	C150.772919,253.671158 152.388336,255.474915 154.126556,257.591095 
z"/>
<path fill="#0BB1E4" opacity="1.000000" stroke="none" 
	d="
M52.976357,380.144684 
	C57.450069,380.144684 61.923779,380.144684 67.283592,380.144684 
	C66.149399,385.992920 65.085251,391.479980 63.964458,397.259064 
	C67.559395,399.291809 69.843758,397.722137 70.892792,393.892792 
	C71.783119,390.642761 72.303246,387.290802 72.964500,383.979370 
	C73.027267,383.665009 72.860229,383.306702 72.914780,382.988464 
	C73.405136,380.128021 80.306770,378.555389 86.519684,380.061157 
	C90.301010,380.977600 88.705132,383.249756 88.118362,385.808746 
	C85.790421,395.961212 83.919273,406.217804 81.816803,416.423035 
	C81.440140,418.251312 80.769844,420.019135 80.027550,422.511993 
	C75.087532,421.963013 70.014435,421.399261 65.396202,420.315735 
	C67.092445,414.503540 68.350357,409.214691 69.502228,403.902802 
	C69.540184,403.727753 68.500854,403.319122 67.963684,403.019379 
	C64.117218,402.473755 62.000614,403.271271 61.726124,408.010834 
	C61.455059,412.691315 59.680973,417.284760 58.550415,421.982208 
	C53.844185,421.982208 49.397175,421.982208 44.650009,421.586090 
	C47.225353,407.508209 50.100853,393.826447 52.976357,380.144684 
z"/>
<path fill="#EEE6D8" opacity="1.000000" stroke="none" 
	d="
M198.959396,189.039261 
	C195.144089,185.071518 191.584076,181.348816 188.011765,177.637985 
	C185.457733,174.984924 185.557053,172.513229 188.211334,169.906281 
	C197.821121,160.467896 207.396545,150.993866 216.913910,141.462357 
	C220.400620,137.970459 222.812531,139.873886 225.654007,142.491455 
	C228.686646,145.285110 228.103195,147.426147 225.490295,149.951828 
	C217.488541,157.686478 209.562042,165.499008 201.203140,173.675583 
	C209.471146,181.946762 217.212173,189.877838 225.189056,197.564102 
	C227.803406,200.083237 229.004425,201.975845 225.615173,204.711258 
	C222.817047,206.969559 220.851990,211.323990 216.438934,206.628174 
	C210.861221,200.693100 204.967072,195.055374 198.959396,189.039261 
z"/>
<path fill="#EEE6D8" opacity="1.000000" stroke="none" 
	d="
M280.767517,193.794006 
	C287.437256,187.244843 293.854034,180.947769 301.263885,173.676117 
	C293.175903,165.934738 285.349121,158.552689 277.654419,151.035461 
	C273.358978,146.839111 273.605133,145.331985 277.751465,141.273712 
	C280.218140,138.859436 282.437347,139.035767 284.615906,141.176926 
	C294.596283,150.986053 304.484772,160.888596 314.438110,170.725372 
	C316.763672,173.023727 316.201050,175.278732 314.300568,177.290268 
	C310.187988,181.643188 305.922150,185.851425 301.715149,190.115005 
	C296.333496,195.568985 290.888336,200.962006 285.591827,206.497391 
	C283.266541,208.927551 281.214447,209.948242 278.558411,206.968689 
	C276.145355,204.261719 272.597656,201.941055 276.619049,197.915802 
	C277.912598,196.620972 279.215759,195.335709 280.767517,193.794006 
z"/>
<path fill="#0DB0E3" opacity="1.000000" stroke="none" 
	d="
M176.600235,377.860565 
	C177.112747,378.901093 178.211136,380.049103 178.043121,380.964783 
	C176.913879,387.119354 175.502716,393.221924 174.221176,399.349304 
	C174.063980,400.100922 174.133972,400.900085 174.047028,402.814667 
	C180.989288,398.782074 185.666122,390.744629 195.190567,394.929474 
	C192.501785,397.264069 189.971313,399.869354 187.037094,401.887665 
	C184.398285,403.702759 183.320251,404.926422 185.572205,408.093170 
	C188.368973,412.026031 190.349976,416.538971 193.321762,421.967621 
	C187.397125,421.967621 182.161118,422.748383 177.378372,421.615509 
	C175.211227,421.102203 173.943741,416.790710 171.825668,413.518738 
	C171.015091,416.491760 170.335281,418.985138 169.518524,421.980835 
	C165.518921,421.980835 161.215881,421.980835 156.476532,421.526917 
	C158.322998,410.270660 160.657135,399.478821 162.874084,388.662964 
	C165.104477,377.781494 165.053391,377.771027 176.600235,377.860565 
z"/>
<path fill="#F17D17" opacity="1.000000" stroke="none" 
	d="
M424.813843,419.921356 
	C425.734863,420.914307 426.655884,421.907257 427.576935,422.900208 
	C427.269562,423.257080 426.962219,423.613953 426.654846,423.970825 
	C423.723236,423.970825 420.791626,423.970825 417.221741,423.688232 
	C415.781738,423.499268 414.979950,423.592834 414.178192,423.686432 
	C413.110382,422.081085 411.015503,420.370422 411.167328,418.890167 
	C411.622070,414.456329 412.955231,410.112640 413.903076,405.053528 
	C412.652191,403.913208 411.443756,403.453064 410.235321,402.992920 
	C410.929382,401.674042 411.325073,400.009888 412.374878,399.102753 
	C415.226074,396.639099 418.354340,394.496124 422.108765,392.111755 
	C424.484009,392.001160 426.123199,392.004852 427.762421,392.008575 
	C428.059692,392.932465 428.356964,393.856384 428.198792,394.974792 
	C427.665100,395.252258 427.504730,395.371613 427.522614,395.411835 
	C427.609344,395.607300 427.743835,395.781555 427.861420,395.963318 
	C426.637146,400.459900 430.277496,400.271515 432.700623,400.510895 
	C436.851654,400.921021 442.143036,399.262207 444.907898,401.279144 
	C447.184601,402.939941 446.489410,408.668182 447.132904,412.590271 
	C447.172455,412.831390 447.401489,413.041412 447.938538,413.897247 
	C449.768463,410.243439 451.323822,406.894867 453.096375,403.665497 
	C454.951263,400.285980 457.507690,398.532532 461.718384,401.003326 
	C457.217865,409.128754 453.460236,417.628815 448.165161,425.028687 
	C441.862671,433.836487 439.485229,434.959045 426.703552,432.478760 
	C428.016663,431.665222 429.296814,430.229309 430.649170,430.157745 
	C434.338745,429.962494 436.549377,428.457245 435.973114,424.712891 
	C434.890533,417.678741 433.413422,410.705322 431.795410,403.101349 
	C429.686279,403.334808 427.882080,404.173553 426.077850,405.012268 
	C426.077850,405.012268 426.066101,405.066589 425.880920,405.126648 
	C425.695709,405.186707 425.528137,405.596771 425.528137,405.596771 
	C425.528137,405.596771 425.839691,405.955902 425.839691,405.955902 
	C425.527069,408.097992 425.214447,410.240112 424.691284,412.826172 
	C424.257507,413.480072 424.119171,413.735870 424.065704,414.037567 
	C424.065704,414.037567 424.022552,414.025787 423.868713,414.101135 
	C423.640137,414.260223 423.485535,414.381073 423.504303,414.421478 
	C423.593018,414.612579 423.729095,414.781647 423.848267,414.958588 
	C423.878845,415.808044 423.909424,416.657532 423.697510,417.968872 
	C423.907959,418.927612 424.360901,419.424469 424.813843,419.921356 
z"/>
<path fill="#0EAFE2" opacity="1.000000" stroke="none" 
	d="
M122.065392,405.459381 
	C120.495468,410.756073 118.925537,416.052795 116.970421,422.649078 
	C112.960716,421.888000 108.373688,420.858826 103.731903,420.240814 
	C102.472595,420.073151 101.037308,421.120758 99.701035,421.656158 
	C93.861374,423.995972 87.868332,422.768707 86.003624,418.691498 
	C83.452995,413.114471 86.121529,405.749695 95.200195,405.049561 
	C98.013268,404.832642 100.895691,405.269714 103.666443,404.862976 
	C104.874405,404.685608 106.257248,403.321594 106.836128,402.141174 
	C107.175766,401.448639 106.212357,399.236328 105.620476,399.148132 
	C104.325233,398.955200 102.213188,399.228973 101.630493,400.106262 
	C98.503777,404.813965 94.198647,401.920990 90.172661,402.649200 
	C89.552414,398.590332 90.178764,395.909363 94.393456,394.893585 
	C100.567665,393.405487 106.587029,392.339020 112.967400,394.353271 
	C118.535446,396.111084 121.874390,398.990570 121.712936,405.336121 
	C122.018936,405.508575 122.065392,405.459381 122.065392,405.459381 
M100.609863,415.875580 
	C104.662544,414.626801 105.154022,411.748230 104.367378,407.518372 
	C100.668434,409.366486 98.034607,411.023834 100.609863,415.875580 
z"/>
<path fill="#F07E19" opacity="1.000000" stroke="none" 
	d="
M352.565460,416.973297 
	C349.514923,419.220825 346.966187,422.251038 343.867126,422.998077 
	C339.132294,424.139374 333.989807,424.127777 329.072449,423.807098 
	C324.980804,423.540253 322.096313,418.625000 322.911926,414.398407 
	C324.603363,405.633545 326.388092,396.886719 328.161377,387.997589 
	C332.058228,387.997589 335.370544,388.010742 338.682709,387.993927 
	C342.059509,387.976807 342.467743,389.944275 341.828369,392.634613 
	C340.259033,399.238281 338.420074,405.796295 337.289886,412.474274 
	C336.966492,414.385132 338.694855,416.643188 339.482452,418.742035 
	C341.876251,417.789001 345.490540,417.487732 346.417725,415.751465 
	C348.553802,411.751556 349.558289,407.098480 350.692719,402.626953 
	C351.716858,398.590088 352.013123,394.350189 353.264923,390.400970 
	C353.627930,389.255768 356.176086,388.803223 357.722473,388.033173 
	C358.211304,389.223633 359.326721,390.559113 359.090118,391.581696 
	C357.142334,399.998413 354.943481,408.357086 352.565460,416.973297 
z"/>
<path fill="#0EAFE2" opacity="1.000000" stroke="none" 
	d="
M205.999222,394.971222 
	C212.775848,391.781342 219.453369,392.798920 226.011780,395.599762 
	C230.293564,397.428253 230.666382,401.201752 229.913330,405.070404 
	C229.210220,408.682556 226.470093,409.263214 223.145599,409.065308 
	C219.029968,408.820251 214.888657,409.006653 210.369827,409.006653 
	C210.369827,411.779236 210.369827,414.160950 210.369827,416.918304 
	C211.470352,416.534393 212.944077,416.433380 213.128174,415.893036 
	C215.275665,409.590057 220.490738,412.701050 224.436752,412.240814 
	C225.243027,412.146790 227.153824,414.085754 227.004013,414.450775 
	C226.099258,416.654907 225.180328,419.940826 223.462112,420.533386 
	C216.380447,422.975555 208.994171,424.113495 201.150375,421.025757 
	C200.402405,420.398041 200.077469,420.262909 199.752548,420.127747 
	C199.752548,420.127747 199.928772,420.117432 199.800537,419.903198 
	C199.097672,419.463287 198.523056,419.237640 197.948456,419.011963 
	C197.948456,419.011963 198.001205,418.997986 197.969604,418.700623 
	C197.500198,418.013489 197.062408,417.623749 196.624603,417.234009 
	C196.624588,417.234009 196.797531,417.297516 196.835800,416.872253 
	C197.239746,410.940247 197.605438,405.433441 197.971130,399.926666 
	C197.971115,399.926666 197.992218,399.991516 198.198181,399.876099 
	C198.595474,399.466461 198.786819,399.172302 198.978165,398.878113 
	C198.978165,398.878113 198.981415,398.981262 199.171814,398.878174 
	C199.577072,398.507172 199.791901,398.239227 200.006729,397.971252 
	C200.006729,397.971252 200.001694,398.011932 200.296478,397.965820 
	C201.047455,397.542450 201.503662,397.165222 201.959869,396.787964 
	C201.959869,396.787964 201.977264,396.941284 202.136292,396.860046 
	C202.612045,396.637146 202.850372,396.412354 203.010300,396.104462 
	C203.010300,396.104462 203.280045,395.879974 203.794952,395.890869 
	C204.872971,395.591583 205.436096,395.281403 205.999222,394.971222 
M213.700806,399.976624 
	C212.696320,401.669373 211.691833,403.362152 210.371185,405.587708 
	C213.779282,405.955139 216.573044,406.909393 216.865677,403.148529 
	C216.976059,401.729980 218.662079,398.099487 213.700806,399.976624 
z"/>
<path fill="#0EAEE1" opacity="1.000000" stroke="none" 
	d="
M288.411804,413.543579 
	C286.241669,412.604797 284.133484,412.216705 282.605469,411.061279 
	C280.417328,409.406616 277.567902,407.479401 276.950043,405.151245 
	C275.899872,401.194153 277.035400,397.077301 281.621796,395.352966 
	C288.845734,392.637024 296.022034,392.163269 303.300720,395.581116 
	C306.014801,396.855530 306.113037,397.600464 304.821228,400.287079 
	C302.957275,404.163727 299.889709,402.885406 297.282898,402.773682 
	C295.672241,402.704590 294.124908,401.157532 291.828613,399.869995 
	C290.859894,401.183716 290.320099,402.844574 293.489838,404.029449 
	C295.043091,404.610046 296.799744,404.771637 298.216980,405.564850 
	C301.199127,407.234070 304.905762,408.080872 304.849121,412.930450 
	C304.792084,417.815918 301.683563,420.089935 298.056427,421.215057 
	C290.149994,423.667633 282.092316,423.422424 272.937225,420.495850 
	C274.275360,417.832977 274.929077,414.234375 276.597656,413.677673 
	C280.367737,412.419830 284.677307,412.574799 286.283661,417.676392 
	C289.959930,416.518372 289.959930,416.518372 288.411804,413.543579 
z"/>
<path fill="#0EAFE2" opacity="1.000000" stroke="none" 
	d="
M128.964920,396.747192 
	C136.779373,391.792633 145.034195,392.286194 153.217102,395.320923 
	C154.602386,395.834656 156.183273,399.022125 155.774963,400.419464 
	C155.164886,402.507263 153.190002,404.825256 151.202133,405.706848 
	C149.162033,406.611603 146.408432,405.907471 144.076096,405.907471 
	C143.629150,403.144836 143.285416,401.020264 142.941696,398.895691 
	C142.227859,398.817993 141.514023,398.740265 140.800186,398.662567 
	C139.217682,404.532166 137.635178,410.401733 136.052673,416.271332 
	C136.851425,416.736084 137.650162,417.200867 138.448914,417.665619 
	C140.312622,415.707611 142.176346,413.749603 144.771606,411.023071 
	C144.811874,411.023071 146.168625,410.822540 147.439896,411.066833 
	C149.733505,411.507538 153.729828,409.421661 153.742386,413.566650 
	C153.753159,417.122955 152.885483,421.641815 147.850677,421.815491 
	C141.791489,422.024506 135.710190,421.592377 129.154327,420.961975 
	C128.102585,420.324432 127.534966,420.162720 126.967346,420.001038 
	C126.967346,420.001038 126.999718,419.987274 126.882050,419.769897 
	C126.462494,419.381165 126.160606,419.209869 125.858719,419.038574 
	C125.858727,419.038544 125.969826,419.030273 125.866043,418.829712 
	C125.463028,418.429932 125.163811,418.230682 124.864578,418.031433 
	C124.864578,418.031433 124.951195,418.049591 124.968781,417.661682 
	C125.235649,411.416840 125.484924,405.559906 125.734192,399.702972 
	C125.734200,399.702972 125.831230,399.789795 126.065857,399.754150 
	C126.464859,399.377197 126.629234,399.035858 126.793594,398.694519 
	C126.793587,398.694519 126.843727,398.819031 127.071411,398.765625 
	C127.485580,398.379578 127.672058,398.046906 127.858536,397.714264 
	C127.858543,397.714264 127.947212,397.846741 128.148880,397.779541 
	C128.555344,397.390625 128.760132,397.068909 128.964920,396.747192 
z"/>
<path fill="#F17E18" opacity="1.000000" stroke="none" 
	d="
M362.050659,424.005676 
	C360.283569,424.005615 358.966919,424.005615 356.789856,424.005615 
	C357.960388,418.228088 359.041168,412.835022 360.165222,407.450989 
	C360.260498,406.994690 360.731842,406.626984 360.880280,406.170013 
	C361.529083,404.172302 361.789856,400.656403 362.800293,400.431915 
	C365.719025,399.783478 368.932251,400.447601 372.028656,400.617737 
	C373.441925,400.695404 374.893951,401.084137 376.254578,400.867706 
	C378.325928,400.538239 380.301849,399.544281 382.373810,399.296204 
	C387.295319,398.706879 391.125549,403.661926 389.931458,409.060425 
	C389.143250,412.623962 387.572968,416.078278 387.245270,419.663086 
	C386.874939,423.713867 384.859406,424.316772 381.511322,424.046936 
	C378.961884,423.841431 376.382629,424.006104 373.945831,424.006104 
	C374.165100,417.173279 378.185333,411.332642 375.870087,405.246918 
	C375.285950,405.183075 374.701813,405.119232 374.117706,405.055389 
	C372.923096,408.872375 371.310364,412.615875 370.623535,416.522125 
	C369.314819,423.965271 369.534271,424.003845 362.050659,424.005676 
z"/>
<path fill="#0CB1E3" opacity="1.000000" stroke="none" 
	d="
M263.019043,396.231873 
	C262.711365,398.060974 262.482452,399.505981 262.057068,400.890625 
	C259.846802,408.085327 262.100769,409.717499 251.500839,408.534729 
	C250.956924,406.464661 250.385788,404.291016 249.814651,402.117371 
	C249.315536,402.042267 248.816406,401.967163 248.317291,401.892090 
	C246.711960,408.424866 245.106613,414.957672 243.431000,421.776428 
	C238.815872,421.776428 233.885040,421.776428 228.951782,421.776428 
	C230.578613,413.199890 232.089066,404.746002 233.899826,396.356934 
	C234.109146,395.387207 236.017288,394.084076 237.086594,394.129913 
	C240.434647,394.273499 243.749222,395.071960 247.096649,395.431732 
	C248.090500,395.538544 249.178757,395.122589 250.174332,394.795654 
	C254.605408,393.340576 259.045929,391.483368 263.019043,396.231873 
z"/>
<path fill="#F17E18" opacity="1.000000" stroke="none" 
	d="
M392.592468,411.792236 
	C392.825836,410.575043 393.311310,409.718506 393.609497,408.801147 
	C394.513519,406.019775 394.598633,401.587036 396.368256,400.775635 
	C399.542114,399.320404 403.711761,400.036896 408.321747,399.802216 
	C406.903259,406.018677 405.611603,411.625732 404.353699,417.240326 
	C404.120209,418.282501 403.968719,419.350281 403.872864,420.414673 
	C403.650970,422.878540 402.613953,424.223450 399.868134,424.045135 
	C397.070312,423.863495 394.251556,424.005005 390.529266,424.005005 
	C391.323669,419.772217 392.041290,415.948669 392.592468,411.792236 
z"/>
<path fill="#0EAEE1" opacity="1.000000" stroke="none" 
	d="
M269.981995,377.824707 
	C270.613220,377.656769 271.272064,377.278748 271.870819,377.357574 
	C274.372986,377.686859 276.857117,378.153290 279.347839,378.569458 
	C278.584595,381.012054 277.944031,383.501801 277.028442,385.885895 
	C275.757599,389.194763 274.280304,392.424286 272.763641,395.988007 
	C271.110168,395.988007 269.477692,395.988007 267.453979,395.536926 
	C268.035858,389.332123 269.008911,383.578430 269.981995,377.824707 
z"/>
<path fill="#F07E19" opacity="1.000000" stroke="none" 
	d="
M399.404602,389.123657 
	C400.282318,388.592499 400.834351,388.150208 401.425537,388.089691 
	C406.159790,387.604889 409.914673,389.572296 410.011688,392.514160 
	C410.108093,395.439636 405.646271,398.402008 401.356964,397.773254 
	C399.936249,397.565002 397.801788,396.083313 397.629028,394.937317 
	C397.367340,393.201263 398.536072,391.249542 399.404602,389.123657 
z"/>
<path fill="#02DAE3" opacity="1.000000" stroke="none" 
	d="
M176.284515,377.687775 
	C165.053391,377.771027 165.104477,377.781494 162.874084,388.662964 
	C160.657135,399.478821 158.322998,410.270660 156.013046,421.469604 
	C155.576859,421.132690 154.703445,420.307800 154.827179,419.679138 
	C157.567245,405.757294 160.417526,391.857147 163.335938,377.514984 
	C167.730988,377.514984 171.849899,377.514984 176.284515,377.687775 
z"/>
<path fill="#02DAE3" opacity="1.000000" stroke="none" 
	d="
M52.593323,380.104553 
	C50.100853,393.826447 47.225353,407.508209 44.188759,421.536621 
	C43.724110,420.976959 43.013813,419.988464 43.177879,419.176697 
	C45.726372,406.566833 48.378052,393.977692 51.060448,381.395386 
	C51.167580,380.892853 51.814747,380.505432 52.593323,380.104553 
z"/>
<path fill="#020304" opacity="1.000000" stroke="none" 
	d="
M347.401550,173.647034 
	C347.097321,173.522720 347.050232,173.077240 346.989014,171.842255 
	C346.931824,148.022324 346.888763,124.991867 346.845703,101.961411 
	C346.845673,101.961411 346.962036,102.147194 347.063904,102.106705 
	C347.443451,103.151077 347.961487,104.235519 347.963440,105.320877 
	C348.003113,127.507751 347.985840,149.694733 347.963104,171.881683 
	C347.962616,172.363174 347.764557,172.844452 347.401550,173.647034 
z"/>
<path fill="#F6F5F1" opacity="1.000000" stroke="none" 
	d="
M166.976746,169.513412 
	C166.601257,168.898407 166.040894,167.822495 166.037827,166.745026 
	C165.986481,148.679214 166.000793,130.613190 166.023407,112.547249 
	C166.024216,111.903419 166.260147,111.259880 166.662628,110.304947 
	C166.976257,129.679718 167.013733,149.365753 166.976746,169.513412 
z"/>
<path fill="#02DAE3" opacity="1.000000" stroke="none" 
	d="
M125.422157,399.853943 
	C125.484924,405.559906 125.235649,411.416840 124.951981,417.702637 
	C121.275475,414.887207 121.937187,410.584900 122.051926,405.939880 
	C122.065392,405.459381 122.018936,405.508575 122.016418,405.541412 
	C123.045975,403.717804 124.078049,401.861389 125.422157,399.853943 
z"/>
<path fill="#02DAE3" opacity="1.000000" stroke="none" 
	d="
M197.671936,400.114838 
	C197.605438,405.433441 197.239746,410.940247 196.743683,416.871399 
	C192.723297,411.446381 194.121170,405.833282 197.671936,400.114838 
z"/>
<path fill="#02DAE3" opacity="1.000000" stroke="none" 
	d="
M269.640411,377.794983 
	C269.008911,383.578430 268.035858,389.332123 267.035217,395.487732 
	C266.658447,395.001801 265.879883,394.032990 266.029663,393.239380 
	C267.007202,388.060150 268.185883,382.918945 269.640411,377.794983 
z"/>
<path fill="#02DAE3" opacity="1.000000" stroke="none" 
	d="
M67.998146,403.423187 
	C68.500854,403.319122 69.540184,403.727753 69.502228,403.902802 
	C68.350357,409.214691 67.092445,414.503540 65.490456,419.882690 
	C66.097427,414.588562 67.065018,409.207764 67.998146,403.423187 
z"/>
<path fill="#EEE5D5" opacity="1.000000" stroke="none" 
	d="
M149.138763,251.897873 
	C148.935974,252.764603 148.714447,253.661789 148.366211,255.072144 
	C146.285736,253.457626 143.188553,252.778336 147.196564,250.019760 
	C147.530197,250.003448 147.905243,250.325134 148.093246,250.813721 
	C148.582809,251.501785 148.884369,251.701248 149.185913,251.900726 
	C149.185913,251.900726 149.120026,251.928329 149.138763,251.897873 
z"/>
<path fill="#EDE5D7" opacity="1.000000" stroke="none" 
	d="
M300.288910,102.006821 
	C300.319885,101.053192 300.640656,100.244019 300.961426,99.434853 
	C301.636200,100.329781 302.311005,101.224716 302.994019,102.467857 
	C302.194397,102.594475 301.386536,102.372879 300.288910,102.006821 
z"/>
<path fill="#F07E19" opacity="1.000000" stroke="none" 
	d="
M426.407227,404.880493 
	C427.882080,404.173553 429.686279,403.334808 431.693542,402.737549 
	C430.176605,403.568878 428.456604,404.158783 426.407227,404.880493 
z"/>
<path fill="#020304" opacity="1.000000" stroke="none" 
	d="
M154.616165,105.306450 
	C154.903992,107.056122 154.949677,109.084045 154.926941,111.541809 
	C154.697037,109.842674 154.535538,107.713684 154.616165,105.306450 
z"/>
<path fill="#F07E19" opacity="1.000000" stroke="none" 
	d="
M427.609528,391.686096 
	C426.123199,392.004852 424.484009,392.001160 422.435791,391.986664 
	C423.836731,391.771759 425.646667,391.567657 427.609528,391.686096 
z"/>
<path fill="#F07E19" opacity="1.000000" stroke="none" 
	d="
M410.306763,403.312134 
	C411.443756,403.453064 412.652191,403.913208 413.901398,404.720154 
	C412.754150,404.588409 411.566162,404.109894 410.306763,403.312134 
z"/>
<path fill="#020304" opacity="1.000000" stroke="none" 
	d="
M154.626923,162.275391 
	C154.907089,163.404205 154.954056,164.780014 154.932251,166.563934 
	C154.706894,165.488831 154.550323,164.005600 154.626923,162.275391 
z"/>
<path fill="#EDE5D7" opacity="1.000000" stroke="none" 
	d="
M284.955383,84.364426 
	C284.473724,84.560371 283.789734,84.546448 283.070312,84.217972 
	C283.607574,83.987137 284.180298,84.070854 284.955383,84.364426 
z"/>
<path fill="#F07E19" opacity="1.000000" stroke="none" 
	d="
M424.685364,419.696777 
	C424.360901,419.424469 423.907959,418.927612 423.647461,418.257660 
	C424.078888,418.547119 424.317871,419.009644 424.685364,419.696777 
z"/>
<path fill="#F07E19" opacity="1.000000" stroke="none" 
	d="
M414.518372,423.758789 
	C414.979950,423.592834 415.781738,423.499268 416.768799,423.606934 
	C416.255554,423.815857 415.557037,423.823486 414.518372,423.758789 
z"/>
<path fill="#020304" opacity="1.000000" stroke="none" 
	d="
M154.643677,132.221863 
	C154.905777,132.766113 154.951233,133.504059 154.927872,134.606659 
	C154.715057,134.119385 154.571045,133.267456 154.643677,132.221863 
z"/>
<path fill="#02DAE3" opacity="1.000000" stroke="none" 
	d="
M127.169586,420.219360 
	C127.534966,420.162720 128.102585,420.324432 128.843307,420.730164 
	C128.468216,420.795380 127.920029,420.616547 127.169586,420.219360 
z"/>
<path fill="#02DAE3" opacity="1.000000" stroke="none" 
	d="
M201.656982,396.830017 
	C201.503662,397.165222 201.047455,397.542450 200.277283,397.958618 
	C200.426895,397.622406 200.890503,397.247253 201.656982,396.830017 
z"/>
<path fill="#02DAE3" opacity="1.000000" stroke="none" 
	d="
M198.090240,419.288757 
	C198.523056,419.237640 199.097672,419.463287 199.789551,419.990784 
	C199.348557,420.050232 198.790298,419.807892 198.090240,419.288757 
z"/>
<path fill="#02DAE3" opacity="1.000000" stroke="none" 
	d="
M205.662292,394.970947 
	C205.436096,395.281403 204.872971,395.591583 203.968903,395.913879 
	C204.193741,395.607544 204.759552,395.289093 205.662292,394.970947 
z"/>
<path fill="#02DAE3" opacity="1.000000" stroke="none" 
	d="
M196.658905,417.535400 
	C197.062408,417.623749 197.500198,418.013489 197.963196,418.727112 
	C197.556656,418.646271 197.124924,418.241577 196.658905,417.535400 
z"/>
<path fill="#EEE5D7" opacity="1.000000" stroke="none" 
	d="
M149.102478,251.618073 
	C148.884369,251.701248 148.582809,251.501785 148.173920,251.047241 
	C148.384079,250.973221 148.701553,251.154312 149.102478,251.618073 
z"/>
<path fill="#020304" opacity="1.000000" stroke="none" 
	d="
M154.749725,102.113190 
	C154.890747,102.023384 154.984634,102.502983 154.921280,102.738930 
	C154.479736,102.782875 154.396667,102.525589 154.749725,102.113190 
z"/>
<path fill="#02DAE3" opacity="1.000000" stroke="none" 
	d="
M199.845886,420.399445 
	C200.077469,420.262909 200.402405,420.398041 200.871841,420.758362 
	C200.657303,420.879456 200.298264,420.775299 199.845886,420.399445 
z"/>
<path fill="#02DAE3" opacity="1.000000" stroke="none" 
	d="
M125.950424,419.299805 
	C126.160606,419.209869 126.462494,419.381165 126.886406,419.786926 
	C126.686325,419.867950 126.364220,419.714508 125.950424,419.299805 
z"/>
<path fill="#02DAE3" opacity="1.000000" stroke="none" 
	d="
M124.945328,418.302795 
	C125.163811,418.230682 125.463028,418.429932 125.864990,418.885437 
	C125.653831,418.952515 125.339951,418.763367 124.945328,418.302795 
z"/>
<path fill="#F07E19" opacity="1.000000" stroke="none" 
	d="
M423.908020,414.738586 
	C423.729095,414.781647 423.593018,414.612579 423.504303,414.421478 
	C423.485535,414.381073 423.640137,414.260223 423.876160,414.122192 
	C424.037476,414.067963 423.967743,414.518555 423.908020,414.738586 
z"/>
<path fill="#F07E19" opacity="1.000000" stroke="none" 
	d="
M424.307129,413.968201 
	C424.119171,413.735870 424.257507,413.480072 424.664276,413.146515 
	C424.748077,413.314850 424.648315,413.606812 424.307129,413.968201 
z"/>
<path fill="#02DAE3" opacity="1.000000" stroke="none" 
	d="
M198.716660,398.966003 
	C198.786819,399.172302 198.595474,399.466461 198.164093,399.877686 
	C198.101089,399.681122 198.278122,399.367493 198.716660,398.966003 
z"/>
<path fill="#F07E19" opacity="1.000000" stroke="none" 
	d="
M427.920532,395.741394 
	C427.743835,395.781555 427.609344,395.607300 427.522614,395.411835 
	C427.504730,395.371613 427.665100,395.252258 427.908081,395.119568 
	C428.072815,395.069794 427.979614,395.519501 427.920532,395.741394 
z"/>
<path fill="#02DAE3" opacity="1.000000" stroke="none" 
	d="
M202.739822,396.121582 
	C202.850372,396.412354 202.612045,396.637146 202.059174,396.862000 
	C202.038467,396.676361 202.253906,396.407532 202.739822,396.121582 
z"/>
<path fill="#F07E19" opacity="1.000000" stroke="none" 
	d="
M425.900330,405.740479 
	C425.839691,405.955902 425.528137,405.596771 425.528137,405.596771 
	C425.528137,405.596771 425.695709,405.186707 425.854004,405.133545 
	C426.012299,405.080353 425.960938,405.525024 425.900330,405.740479 
z"/>
<path fill="#02DAE3" opacity="1.000000" stroke="none" 
	d="
M128.680573,396.849640 
	C128.760132,397.068909 128.555344,397.390625 128.077118,397.814209 
	C128.001205,397.594757 128.198715,397.273407 128.680573,396.849640 
z"/>
<path fill="#02DAE3" opacity="1.000000" stroke="none" 
	d="
M127.564575,397.775909 
	C127.672058,398.046906 127.485580,398.379578 127.004356,398.762848 
	C126.896606,398.488159 127.083603,398.162872 127.564575,397.775909 
z"/>
<path fill="#02DAE3" opacity="1.000000" stroke="none" 
	d="
M199.739563,398.035278 
	C199.791901,398.239227 199.577072,398.507172 199.120255,398.876587 
	C199.076324,398.685120 199.274368,398.392212 199.739563,398.035278 
z"/>
<path fill="#02DAE3" opacity="1.000000" stroke="none" 
	d="
M126.501595,398.751953 
	C126.629234,399.035858 126.464859,399.377197 126.007980,399.783936 
	C125.880180,399.502747 126.044884,399.156067 126.501595,398.751953 
z"/>
<path fill="#F6F5F1" opacity="1.000000" stroke="none" 
	d="
M346.595428,102.294235 
	C346.888763,124.991867 346.931824,148.022324 346.905518,171.515839 
	C346.556763,170.724030 346.036774,169.469696 346.033966,168.214203 
	C345.986847,146.999481 346.001129,125.784615 346.021301,104.569801 
	C346.021912,103.922127 346.232452,103.274643 346.595428,102.294235 
z"/>
<path fill="#0A1219" opacity="1.000000" stroke="none" 
	d="
M100.355087,415.603088 
	C98.034607,411.023834 100.668434,409.366486 104.367378,407.518372 
	C105.154022,411.748230 104.662544,414.626801 100.355087,415.603088 
z"/>
<path fill="#0A1219" opacity="1.000000" stroke="none" 
	d="
M213.972916,399.685791 
	C218.662079,398.099487 216.976059,401.729980 216.865677,403.148529 
	C216.573044,406.909393 213.779282,405.955139 210.371185,405.587708 
	C211.691833,403.362152 212.696320,401.669373 213.972916,399.685791 
z"/>
</svg>